<svg width="32" height="32" viewBox="0 0 32 32" fill="none" xmlns="http://www.w3.org/2000/svg">
  <!-- Background circle with gradient -->
  <circle cx="16" cy="16" r="15" fill="url(#gradient)" stroke="url(#borderGradient)" stroke-width="1"/>
  
  <!-- Heart icon -->
  <path d="M16 24C16 24 10 18 10 14C10 12.5 11.5 11 13 11C14.5 11 15.5 12 16 13C16.5 12 17.5 11 19 11C20.5 11 22 12.5 22 14C22 18 16 24 16 24Z" fill="white" stroke="white" stroke-width="1" stroke-linejoin="round"/>
  
  <!-- Blockchain connection dots -->
  <circle cx="8" cy="8" r="1" fill="white" opacity="0.8"/>
  <circle cx="24" cy="8" r="1" fill="white" opacity="0.8"/>
  <circle cx="8" cy="24" r="1" fill="white" opacity="0.8"/>
  <circle cx="24" cy="24" r="1" fill="white" opacity="0.8"/>
  
  <!-- Connection lines -->
  <path d="M8 8L16 16M24 8L16 16M8 24L16 16M24 24L16 16" stroke="white" stroke-width="0.5" opacity="0.6"/>
  
  <!-- Center connection point -->
  <circle cx="16" cy="16" r="1.5" fill="white" opacity="0.9"/>
  
  <!-- Gradients -->
  <defs>
    <linearGradient id="gradient" x1="0%" y1="0%" x2="100%" y2="100%">
      <stop offset="0%" style="stop-color:#3B82F6;stop-opacity:1" />
      <stop offset="50%" style="stop-color:#8B5CF6;stop-opacity:1" />
      <stop offset="100%" style="stop-color:#EC4899;stop-opacity:1" />
    </linearGradient>
    <linearGradient id="borderGradient" x1="0%" y1="0%" x2="100%" y2="100%">
      <stop offset="0%" style="stop-color:#1E40AF;stop-opacity:1" />
      <stop offset="100%" style="stop-color:#BE185D;stop-opacity:1" />
    </linearGradient>
  </defs>
</svg>
