<svg width="64" height="64" viewBox="0 0 64 64" fill="none" xmlns="http://www.w3.org/2000/svg">
  <!-- Background circle with gradient -->
  <circle cx="32" cy="32" r="30" fill="url(#gradient)" stroke="url(#borderGradient)" stroke-width="2"/>
  
  <!-- Heart icon -->
  <path d="M32 48C32 48 20 36 20 28C20 24.5 22.5 22 26 22C28.5 22 30.5 23.5 32 25.5C33.5 23.5 35.5 22 38 22C41.5 22 44 24.5 44 28C44 36 32 48 32 48Z" fill="white" stroke="white" stroke-width="1.5" stroke-linejoin="round"/>
  
  <!-- Blockchain connection dots -->
  <circle cx="16" cy="16" r="2" fill="white" opacity="0.8"/>
  <circle cx="48" cy="16" r="2" fill="white" opacity="0.8"/>
  <circle cx="16" cy="48" r="2" fill="white" opacity="0.8"/>
  <circle cx="48" cy="48" r="2" fill="white" opacity="0.8"/>
  
  <!-- Connection lines -->
  <path d="M16 16L32 32M48 16L32 32M16 48L32 32M48 48L32 32" stroke="white" stroke-width="1" opacity="0.6"/>
  
  <!-- Center connection point -->
  <circle cx="32" cy="32" r="3" fill="white" opacity="0.9"/>
  
  <!-- Gradients -->
  <defs>
    <linearGradient id="gradient" x1="0%" y1="0%" x2="100%" y2="100%">
      <stop offset="0%" style="stop-color:#3B82F6;stop-opacity:1" />
      <stop offset="50%" style="stop-color:#8B5CF6;stop-opacity:1" />
      <stop offset="100%" style="stop-color:#EC4899;stop-opacity:1" />
    </linearGradient>
    <linearGradient id="borderGradient" x1="0%" y1="0%" x2="100%" y2="100%">
      <stop offset="0%" style="stop-color:#1E40AF;stop-opacity:1" />
      <stop offset="100%" style="stop-color:#BE185D;stop-opacity:1" />
    </linearGradient>
  </defs>
</svg>
